{"title":"Sean Paul - She Doesn't Mind [Music Video] 720p [Sbyky]","uid":14443051,"size":56122166,"categoryP":"video","categoryS":"music_videos","magnet":"?xt=urn:btih:d83f27ae00730e8359c4efd25b34815f20665939&amp;dn=Sean+Paul+-+She+Doesn%27t+Mind+%5BMusic+Video%5D+720p+%5BSbyky%5D&amp;tr=udp%3A%2F%2Ftracker.leechers-paradise.org%3A6969&amp;tr=udp%3A%2F%2Fzer0day.ch%3A1337&amp;tr=udp%3A%2F%2Fopen.demonii.com%3A1337&amp;tr=udp%3A%2F%2Ftracker.coppersurfer.tk%3A6969&amp;tr=udp%3A%2F%2Fexodus.desync.com%3A6969","seeders":1,"leechers":0,"uploader":"Sbyky","files":1,"time":1461697919,"description":"General\r\nComplete name                            : Sean Paul - She Doesn't Mind [Music Video] 720p [Sbyky].MP4\r\nFormat                                   : MPEG-4\r\nFormat profile                           : Base Media / Version 2\r\nCodec ID                                 : mp42\r\nFile size                                : 53.5 MiB\r\nDuration                                 : 4mn 5s\r\nOverall bit rate mode                    : Variable\r\nOverall bit rate                         : 1 829 Kbps\r\nEncoded date                             : UTC 2016-03-17 06:22:10\r\nTagged date                              : UTC 2016-03-17 06:22:10\r\n\r\nVideo\r\nID                                       : 1\r\nFormat                                   : AVC\r\nFormat/Info                              : Advanced Video Codec\r\nFormat profile                           :   \r\nFormat settings, CABAC                   : Yes\r\nFormat settings, ReFrames                : 1 frame\r\nCodec ID                                 : avc1\r\nCodec ID/Info                            : Advanced Video Coding\r\nDuration                                 : 4mn 5s\r\nBit rate                                 : 1 634 Kbps\r\nMaximum bit rate                         : 3 312 Kbps\r\nWidth                                    : 1 280 pixels\r\nHeight                                   : 720 pixels\r\nDisplay aspect ratio                     : 16:9\r\nFrame rate mode                          : Constant\r\nFrame rate                               : 23.976 fps\r\nColor space                              : YUV\r\nChroma subsampling                       : 4:2:0\r\nBit depth                                : 8 bits\r\nScan type                                : Progressive\r\nBits/(Pixel*Frame)                       : 0.074\r\nStream size                              : 47.8 MiB (89%)\r\nTagged date                              : UTC 2016-03-17 06:22:11\r\n\r\nAudio\r\nID                                       : 2\r\nFormat                                   : AAC\r\nFormat/Info                              : Advanced Audio Codec\r\nFormat profile                           : LC\r\nCodec ID                                 : 40\r\nDuration                                 : 4mn 5s\r\nBit rate mode                            : Variable\r\nBit rate                                 : 192 Kbps\r\nMaximum bit rate                         : 201 Kbps\r\nChannel(s)                               : 2 channels\r\nChannel positions                        : Front: L R\r\nSampling rate                            : 44.1 KHz\r\nCompression mode                         : Lossy\r\nStream size                              : 5.62 MiB (10%)\r\nTitle                                    : IsoMedia File Produced by Google, 5-11-2011\r\nEncoded date                             : UTC 2016-03-17 06:22:11\r\nTagged date                              : UTC 2016-03-17 06:22:11\r\n\r\nShared By Sbyky\r\n[IMG]http://yuq.me/users/18/139/0aq32UMZvX.gif[/IMG]\r\n[IMG]http://yuq.me/users/18/139/bQg62viaEG.gif[/IMG]","torrent":{"xt":"urn:btih:d83f27ae00730e8359c4efd25b34815f20665939","amp;dn":"Sean+Paul+-+She+Doesn%27t+Mind+%5BMusic+Video%5D+720p+%5BSbyky%5D","amp;tr":["udp%3A%2F%2Ftracker.leechers-paradise.org%3A6969","udp%3A%2F%2Fzer0day.ch%3A1337","udp%3A%2F%2Fopen.demonii.com%3A1337","udp%3A%2F%2Ftracker.coppersurfer.tk%3A6969","udp%3A%2F%2Fexodus.desync.com%3A6969"],"infoHash":"d83f27ae00730e8359c4efd25b34815f20665939","infoHashBuffer":{"type":"Buffer","data":[216,63,39,174,0,115,14,131,89,196,239,210,91,52,129,95,32,102,89,57]},"announce":[],"urlList":[]}}